/* XPM */
static char *_a4a80653e264c51fbcf97557602291eranRdjIZGPaBKjgi[] = {
/* columns rows colors chars-per-pixel */
"128 128 76 1 ",
"  c black",
". c #030500",
"X c #060606",
"o c #080B00",
"O c #0A0F00",
"+ c gray3",
"@ c gray5",
"# c #101010",
"$ c gray9",
"% c gray10",
"& c #1E1E1E",
"* c #172100",
"= c #192400",
"- c #1C2900",
"; c #1E2C00",
": c gray13",
"> c #272727",
", c #282828",
"< c #2C2C2C",
"1 c gray20",
"2 c #373737",
"3 c gray22",
"4 c #3E3E3E",
"5 c #405D00",
"6 c #547B00",
"7 c #414141",
"8 c #444444",
"9 c #494949",
"0 c gray31",
"q c #535353",
"w c gray33",
"e c #585858",
"r c #5D5D5D",
"t c #626262",
"y c gray40",
"u c gray42",
"i c #727272",
"p c #767676",
"a c #797979",
"s c gray50",
"d c #588000",
"f c #9CE300",
"g c #A5F000",
"h c #AFFF00",
"j c gray51",
"k c #848484",
"l c gray54",
"z c gray55",
"x c #929292",
"c c #959595",
"v c #9A9A9A",
"b c gray62",
"n c #A2A2A2",
"m c gray65",
"M c gray67",
"N c #AFAFAF",
"B c gray70",
"V c #B6B6B6",
"C c gray73",
"Z c gray74",
"A c #C3C3C3",
"S c #C5C5C5",
"D c gray80",
"F c #CECECE",
"G c #D0D0D0",
"H c #D5D5D5",
"J c gray86",
"K c #DDDDDD",
"L c #E4E4E4",
"P c #E7E7E7",
"I c #E9E9E9",
"U c #EFEFEF",
"Y c #F3F3F3",
"T c gray97",
"R c #F8F8F8",
"E c white",
/* pixels */
"EEEEEEEEEEEEEEEEEEEEEEEEEEEEEEEEEEEEEEEEEEEEEEEEEEEEEEEEEEEEEEEE                                                                ",
"EEEEEEEEEEEEEEEEEEEEEEEEEEEEEEEEEEEEEEEEEEEEEEEEEEEEEEEEEEEEEEEE                                                                ",
"EEEEEEEEEEEEEEEEEEEEEEEEEEEEEEEEEEEEEEEEEEEEEEEEEEEEEEEEEEEEEEEE                                                                ",
"EEEEEEEEEEEEEEEEEEEEEEEEEEEEEEEEEEEEEEEEEEEEEEEEEEEEEEEEEEEEEEEE                                                                ",
"EEEEEEEEEEEEEEEEEEEEEEEEEEEEEEEEEEEEEEEEEEEEEEEEEEEEEEEEEEEEEEEE                                                                ",
"EEEEEEEEEEEEEEEEEEEEEEEEEEEEEEEEEEEEEEEEEEEEEEEEEEEEEEEEEEEEEEEE                                                                ",
"EEEEEEEEEEEEEEEEEEEEEEEEEEEEEEEEEEEEEEEEEEEEEEEEEEEEEEEEEEEEEEEE                                                                ",
"EEEEEEEEEEEEEEEEEEEEEEEEEEEEEEEEEEEEEEEEEEEEEEEEEEEEEEEEEEEEEEEE                                                                ",
"EEEEEEEEEEEEEEEEEEEEEEEEEEEEEEEEEEEEEEEEEEEEEEEEEEEEEEEEEEEEEEEE                                                                ",
"EEEEEEEEEEEEEEEEEEEEEEEEEEEEEEEEEEEEEEEEEEEEEEEEEEEEEEEEEEEEEEEE                                                                ",
"EEEEEEEEEEEEEEEEEEEEEEEEEEEEEEEEEEEEEEEEEEEEEEEEEEEEEEEEEEEEEEEE                                                                ",
"EEEEEEEEEEEEEEEEEEEEEEEEEEEEEEEEEEEEEEEEEEEEEEEEEEEEEEEEEEEEEEEE                                                                ",
"EEEEEEEEEEEEEEEEEEEEEEEEEEEEEEEEEEEEEEEEEEEEEEEEEEEEEEEEEEEEEEEE                                                                ",
"EEEEEEEEEEEEEEEEEEEEEEEEEEEEEEEEEEEEEEEEEEEEEEEEEEEEEEEEEEEEEEEE                                                                ",
"EEEEEEEEEEEEEEEEEEEEEEEEEEEEEEEEEEEEEEEEEEEEEEEEEEEEEEEEEEEEEEEE                                                                ",
"EEEEEEEEEEEEEEEEEEEEEEEEEEEEEEEEEEEEEEEEEEEEEEEEEEEEEEEEEEEEEEEE                                                                ",
"EEEEEEEEEEEEEEEEEEEEEEEEEEEEEEEEEEEEEEEEEEEEEEEEEEEEEEEEEEEEEEEE                                                                ",
"EEEEEEEEEEEEEEEEEEEEEEEEEEEEEEEEEEEEEEEEEEEEEEEEEEEEEEEEEEEEEEEE                                                                ",
"EEEEEEEEEEEEEEEEEEEEEEEEEEEEEEEEEEEEEEEEEEEEEEEEEEEEEEEEEEEEEEEE                                                                ",
"EEEEEEEEEEEEEEEEEEEEEEEEEEEEEEEEEEEEEEEEEEEEEEEEEEEEEEEEEEEEEEEE                                                                ",
"EEEEEEEEEEEEEEEEEEEEEEEEEEEEEEEEEEEEEEEEEEEEEEEEEEEEEEEEEEEEEEEE                                                                ",
"EEEEEEEEEEEEEEEEEEEEEEEEEEEEEEEEEEEEEEEEEEEEEEEEEEEEEEEEEEEEEEEE                                                                ",
"EEEEEEEEEEEEEEEEEEEEEEEEEEEEEEEEEEEEEEEEEEEEEEEEEEEEEEEEEEEEEEEE                                                                ",
"EEEEEEEEEEEEEEEEEEEEEEEEEEEEEEEEEEEEEEEEEEEEEEEEEEEEEEEEEEEEEEEE                                                                ",
"EEEEEEEEEEEEEEEEEEEEEEEEEEEEEEEEEEEEEEEEEEEEEEEEEEEEEEEEEEEEEEEE                                                                ",
"EEEEEEEEEEEEEEEEEEEEEEEEEEEEEEEEEEEEEEEEEEEEEEEEEEEEEEEEEEEEEEEE                                                                ",
"EEEEEEEEEEEEEEEEEEEEEEEEEEEEEEEEEEEEEEEEEEEEEEEEEEEEEEEEEEEEEEEE                                                                ",
"EEEEEEEEEEEEEEEEEEEEEEEEEEEEEEEEEEEEEEEEEEEEEEEEEEEEEEEEEEEEEEEE                                                                ",
"EEEEEEEEEEEEEEEEEEEEEEEEEEEEEEEEEEEEEEEEEEEEEEEEEEEEEEEEEEEEEEEE                                                                ",
"EEEEEEEEEEEEEEEEEEEEEEEEEEEEEEEEEEEEEEEEEEEEEEEEEEEEEEEEEEEEEEEE                                                                ",
"EEEEEEEEEEEEEEEEEEEEEEEEEEEEEEEEEEEEEEEEEEEEEEEEEEEEEEEEEEEEEEEE                                                                ",
"EEEEEEEEEEEEEEEEEEEEEEEEEEEEEEEEEEEEEEEEEEEEEEEEEEEEEEEEEEEEEEEE                                                                ",
"EEEEEEEEEEEEEEEEEEEEEEEEEEEEEEEEEEEEEEEEEEEEEEEEEEEEEEEEEEEEEEEE                                                                ",
"EEEEEEEEEEEEEEEEEEEEEEEEEEEEEEEEEEEEEEEEEEEEEEEEEEEEEEEEEEEEEEEE                                                                ",
"EEEEEEEEEEEEKKKKKKKKUEEEEEEEEEEEEEEEEEEEEEEEEEPKKKKKKKPEEEEEEEEE         O--------------------------------------------.         ",
"EEEEEEEEEEEEu       :TEEEEEEEEEEEEEEEEEEEEEEEI@       cEEEEEEEEE         5hhhhhhhhhhhhhhhhhhhhhhhhhhhhhhhhhhhhhhhhhhhh*         ",
"EEEEEEEEEEEEY%       lEEEEEEEEEEEEEEEEEEEEEEEr       2EEEEEEEEEE         5hhhhhhhhhhhhhhhhhhhhhhhhhhhhhhhhhhhhhhhhhhhh*         ",
"EEEEEEEEEEEEEm       @PEEEEEEEEEEEEEEEEEEEEES       XHEEEEEEEEEE         5hhhhhhhhhhhhhhhhhhhhhhhhhhhhhhhhhhhhhhhhhhhh*         ",
"EEEEEEEEEEEEEE9       rEEEEEEEEEEEEEEEEEEEEE2       jEEEEEEEEEEE         5hhhhhhhhhhhhhhhhhhhhhhhhhhhhhhhhhhhhhhhhhhhh*         ",
"EEEEEEEEEEEEEEJ+       DEEEEEEEEEEEEEEEEEEEc       >TEEEEEEEEEEE         5hhhhhhhhhhhhhhhhhhhhhhhhhhhhhhhhhhhhhhhhhhhh*         ",
"EEEEEEEEEEEEEEEs       1EEEEEEEEEEEEEEEEEEY@       AEEEEEEEEEEEE         5hhhhhhhhhhhhhhhhhhhhhhhhhhhhhhhhhhhhhhhhhhhh*         ",
"EEEEEEEEEEEEEEER>       bEEEEEEEEEEEEEEEEEy       uEEEEEEEEEEEEE         ;66666666666666666dhhhhhhhg666666666666666666O         ",
"EEEEEEEEEEEEEEEEC       $UEEEEEEEEEEEEEEED       %UEEEEEEEEEEEEE                           ohhhhhhhf                            ",
"EEEEEEEEEEEEEEEEEe       pEEEEEEEEEEEEEEE2       NEEEEEEEEEEEEEE                           ohhhhhhhf                            ",
"EEEEEEEEEEEEEEEEEP@      XJEEEEEEEEEEEEEb       qEEEEEEEEEEEEEEE                           ohhhhhhhf                            ",
"EEEEEEEEEEEEEEEEEEx       9EEEEEEEEEEEEY%      @PEEEEEEEEEEEEEEE                           ohhhhhhhf                            ",
"EEEEEEEEEEEEEEEEEEE3       VEEEEEEEEEEEu       vEEEEEEEEEEEEEEEE                           ohhhhhhhf                            ",
"EEEEEEEEEEEEEEEEEEED       >TEEEEEEEEEHX      3EEEEEEEEEEEEEEEEE                           ohhhhhhhf                            ",
"EEEEEEEEEEEEEEEEEEEEu       zEEEEEEEEE7      +HEEEEEEEEEEEEEEEEE                           ohhhhhhhf                            ",
"EEEEEEEEEEEEEEEEEEEEY%      @PEEEEEEEm       jEEEEEEEEEEEEEEEEEE                           ohhhhhhhf                            ",
"EEEEEEEEEEEEEEEEEEEEEm       tEEEEEET&      ,TEEEEEEEEEEEEEEEEEE                           ohhhhhhhf                            ",
"EEEEEEEEEEEEEEEEEEEEEE9       DEEEEEp       SEEEEEEEEEEEEEEEEEEE                           ohhhhhhhf                            ",
"EEEEEEEEEEEEEEEEEEEEEEJ+      3EEEEJX      uEEEEEEEEEEEEEEEEEEEE                           ohhhhhhhf                            ",
"EEEEEEEEEEEEEEEEEEEEEEEs       nEEE9      %UEEEEEEEEEEEEEEEEEEEE                           ohhhhhhhf                            ",
"EEEEEEEEEEEEEEEEEEEEEEER>      $YEN       NEEEEEEEEEEEEEEEEEEEEE                           ohhhhhhhf                            ",
"EEEEEEEEEEEEEEEEEEEEEEEEC       pT:      qEEEEEEEEEEEEEEEEEEEEEE                           ohhhhhhhf                            ",
"EEEEEEEEEEEEEEEEEEEEEEEEEe      Xt      #PEEEEEEEEEEEEEEEEEEEEEE                           ohhhhhhhf                            ",
"EEEEEEEEEEEEEEEEEEEEEEEEEP#             vEEEEEEEEEEEEEEEEEEEEEEE                           ohhhhhhhf                            ",
"EEEEEEEEEEEEEEEEEEEEEEEEEEx            4EEEEEEEEEEEEEEEEEEEEEEEE                           ohhhhhhhf                            ",
"EEEEEEEEEEEEEEEEEEEEEEEEEEE2          XHEEEEEEEEEEEEEEEEEEEEEEEE                           ohhhhhhhf                            ",
"EEEEEEEEEEEEEEEEEEEEEEEEEEED          jEEEEEEEEEEEEEEEEEEEEEEEEE                           ohhhhhhhf                            ",
"EEEEEEEEEEEEEEEEEEEEEEEEEEEEu        ,TEEEEEEEEEEEEEEEEEEEEEEEEE                           ohhhhhhhf                            ",
"EEEEEEEEEEEEEEEEEEEEEEEEEEEEB        iEEEEEEEEEEEEEEEEEEEEEEEEEE                           ohhhhhhhf                            ",
"EEEEEEEEEEEEEEEEEEEEEEEEEEET,        XJEEEEEEEEEEEEEEEEEEEEEEEEE                           ohhhhhhhf                            ",
"EEEEEEEEEEEEEEEEEEEEEEEEEEEa          8EEEEEEEEEEEEEEEEEEEEEEEEE                           ohhhhhhhf                            ",
"EEEEEEEEEEEEEEEEEEEEEEEEEEGX           MEEEEEEEEEEEEEEEEEEEEEEEE                           ohhhhhhhf                            ",
"EEEEEEEEEEEEEEEEEEEEEEEEEE4            &YEEEEEEEEEEEEEEEEEEEEEEE                           ohhhhhhhf                            ",
"EEEEEEEEEEEEEEEEEEEEEEEEEx              pEEEEEEEEEEEEEEEEEEEEEEE                           ohhhhhhhf                            ",
"EEEEEEEEEEEEEEEEEEEEEEEEP@      #a      XHEEEEEEEEEEEEEEEEEEEEEE                           ohhhhhhhf                            ",
"EEEEEEEEEEEEEEEEEEEEEEEE0       vR<      4EEEEEEEEEEEEEEEEEEEEEE                           ohhhhhhhf                            ",
"EEEEEEEEEEEEEEEEEEEEEEEN       3EEB       nEEEEEEEEEEEEEEEEEEEEE                           ohhhhhhhf                            ",
"EEEEEEEEEEEEEEEEEEEEEEU&       DEEE8      $UEEEEEEEEEEEEEEEEEEEE                           ohhhhhhhf                            ",
"EEEEEEEEEEEEEEEEEEEEEEu       uEEEEH       iEEEEEEEEEEEEEEEEEEEE                           ohhhhhhhf                            ",
"EEEEEEEEEEEEEEEEEEEEED       %UEEEEEu       DEEEEEEEEEEEEEEEEEEE                           ohhhhhhhf                            ",
"EEEEEEEEEEEEEEEEEEEER1       MEEEEEEU#      3EEEEEEEEEEEEEEEEEEE                           ohhhhhhhf                            ",
"EEEEEEEEEEEEEEEEEEEEk       8EEEEEEEEz       bEEEEEEEEEEEEEEEEEE                           ohhhhhhhf                            ",
"EEEEEEEEEEEEEEEEEEEJ+      XHEEEEEEEER>      #IEEEEEEEEEEEEEEEEE                           ohhhhhhhf                            ",
"EEEEEEEEEEEEEEEEEEE8       jEEEEEEEEEEN       yEEEEEEEEEEEEEEEEE                           ohhhhhhhf                            ",
"EEEEEEEEEEEEEEEEEEn       >TEEEEEEEEEEE8       DEEEEEEEEEEEEEEEE                           ohhhhhhhf                            ",
"EEEEEEEEEEEEEEEEEU$       VEEEEEEEEEEEEGX      1EEEEEEEEEEEEEEEE                           ohhhhhhhf                            ",
"EEEEEEEEEEEEEEEEEe       eEEEEEEEEEEEEEEy       cEEEEEEEEEEEEEEE                           ohhhhhhhf                            ",
"EEEEEEEEEEEEEEEEA       @PEEEEEEEEEEEEEEI@      #IEEEEEEEEEEEEEE                           ohhhhhhhf                            ",
"EEEEEEEEEEEEEEET:       xEEEEEEEEEEEEEEEEl       tEEEEEEEEEEEEEE                           ohhhhhhhf                            ",
"EEEEEEEEEEEEEEEp       2EEEEEEEEEEEEEEEEER>       AEEEEEEEEEEEEE                           ohhhhhhhf                            ",
"EEEEEEEEEEEEEEGX       DEEEEEEEEEEEEEEEEEEN       <REEEEEEEEEEEE                           ohhhhhhhf                            ",
"EEEEEEEEEEEEER3       uEEEEEEEEEEEEEEEEEEEE7       xEEEEEEEEEEEE                           ohhhhhhhf                            ",
"EEEEEEEEEEEEEx       $UEEEEEEEEEEEEEEEEEEEED       @PEEEEEEEEEEE                           ohhhhhhhf                            ",
"EEEEEEEEEEEEP#       mEEEEEEEEEEEEEEEEEEEEEEt       wEEEEEEEEEEE                           ohhhhhhhf                            ",
"EEEEEEEEEEEE0       7EEEEEEEEEEEEEEEEEEEEEEEI@       ZEEEEEEEEEE                           ohhhhhhhf                            ",
"EEEEEEEEEEEM       XHEEEEEEEEEEEEEEEEEEEEEEEEj       >REEEEEEEEE                           ohhhhhhhf                            ",
"EEEEEEEEEEY%       sEEEEEEEEEEEEEEEEEEEEEEEEET:       lEEEEEEEEE                           ohhhhhhhf                            ",
"EEEEEEEEEEy       :TEEEEEEEEEEEEEEEEEEEEEEEEEEm       +KEEEEEEEE                           ohhhhhhhf                            ",
"EEEEEEEEES        VEEEEEEEEEEEEEEEEEEEEEEEEEEEE4       qEEEEEEEE                           Ohhhhhhhf                            ",
"EEEEEEEEEUKKKKKKKKEEEEEEEEEEEEEEEEEEEEEEEEEEEEEUKKKKKKKKEEEEEEEE                            -=-----=                            ",
"EEEEEEEEEEEEEEEEEEEEEEEEEEEEEEEEEEEEEEEEEEEEEEEEEEEEEEEEEEEEEEEE                                                                ",
"EEEEEEEEEEEEEEEEEEEEEEEEEEEEEEEEEEEEEEEEEEEEEEEEEEEEEEEEEEEEEEEE                                                                ",
"EEEEEEEEEEEEEEEEEEEEEEEEEEEEEEEEEEEEEEEEEEEEEEEEEEEEEEEEEEEEEEEE                                                                ",
"EEEEEEEEEEEEEEEEEEEEEEEEEEEEEEEEEEEEEEEEEEEEEEEEEEEEEEEEEEEEEEEE                                                                ",
"EEEEEEEEEEEEEEEEEEEEEEEEEEEEEEEEEEEEEEEEEEEEEEEEEEEEEEEEEEEEEEEE                                                                ",
"EEEEEEEEEEEEEEEEEEEEEEEEEEEEEEEEEEEEEEEEEEEEEEEEEEEEEEEEEEEEEEEE                                                                ",
"EEEEEEEEEEEEEEEEEEEEEEEEEEEEEEEEEEEEEEEEEEEEEEEEEEEEEEEEEEEEEEEE                                                                ",
"EEEEEEEEEEEEEEEEEEEEEEEEEEEEEEEEEEEEEEEEEEEEEEEEEEEEEEEEEEEEEEEE                                                                ",
"EEEEEEEEEEEEEEEEEEEEEEEEEEEEEEEEEEEEEEEEEEEEEEEEEEEEEEEEEEEEEEEE                                                                ",
"EEEEEEEEEEEEEEEEEEEEEEEEEEEEEEEEEEEEEEEEEEEEEEEEEEEEEEEEEEEEEEEE                                                                ",
"EEEEEEEEEEEEEEEEEEEEEEEEEEEEEEEEEEEEEEEEEEEEEEEEEEEEEEEEEEEEEEEE                                                                ",
"EEEEEEEEEEEEEEEEEEEEEEEEEEEEEEEEEEEEEEEEEEEEEEEEEEEEEEEEEEEEEEEE                                                                ",
"EEEEEEEEEEEEEEEEEEEEEEEEEEEEEEEEEEEEEEEEEEEEEEEEEEEEEEEEEEEEEEEE                                                                ",
"EEEEEEEEEEEEEEEEEEEEEEEEEEEEEEEEEEEEEEEEEEEEEEEEEEEEEEEEEEEEEEEE                                                                ",
"EEEEEEEEEEEEEEEEEEEEEEEEEEEEEEEEEEEEEEEEEEEEEEEEEEEEEEEEEEEEEEEE                                                                ",
"EEEEEEEEEEEEEEEEEEEEEEEEEEEEEEEEEEEEEEEEEEEEEEEEEEEEEEEEEEEEEEEE                                                                ",
"EEEEEEEEEEEEEEEEEEEEEEEEEEEEEEEEEEEEEEEEEEEEEEEEEEEEEEEEEEEEEEEE                                                                ",
"EEEEEEEEEEEEEEEEEEEEEEEEEEEEEEEEEEEEEEEEEEEEEEEEEEEEEEEEEEEEEEEE                                                                ",
"EEEEEEEEEEEEEEEEEEEEEEEEEEEEEEEEEEEEEEEEEEEEEEEEEEEEEEEEEEEEEEEE                                                                ",
"EEEEEEEEEEEEEEEEEEEEEEEEEEEEEEEEEEEEEEEEEEEEEEEEEEEEEEEEEEEEEEEE                                                                ",
"EEEEEEEEEEEEEEEEEEEEEEEEEEEEEEEEEEEEEEEEEEEEEEEEEEEEEEEEEEEEEEEE                                                                ",
"EEEEEEEEEEEEEEEEEEEEEEEEEEEEEEEEEEEEEEEEEEEEEEEEEEEEEEEEEEEEEEEE                                                                ",
"EEEEEEEEEEEEEEEEEEEEEEEEEEEEEEEEEEEEEEEEEEEEEEEEEEEEEEEEEEEEEEEE                                                                ",
"EEEEEEEEEEEEEEEEEEEEEEEEEEEEEEEEEEEEEEEEEEEEEEEEEEEEEEEEEEEEEEEE                                                                ",
"EEEEEEEEEEEEEEEEEEEEEEEEEEEEEEEEEEEEEEEEEEEEEEEEEEEEEEEEEEEEEEEE                                                                ",
"EEEEEEEEEEEEEEEEEEEEEEEEEEEEEEEEEEEEEEEEEEEEEEEEEEEEEEEEEEEEEEEE                                                                ",
"EEEEEEEEEEEEEEEEEEEEEEEEEEEEEEEEEEEEEEEEEEEEEEEEEEEEEEEEEEEEEEEE                                                                ",
"EEEEEEEEEEEEEEEEEEEEEEEEEEEEEEEEEEEEEEEEEEEEEEEEEEEEEEEEEEEEEEEE                                                                ",
"EEEEEEEEEEEEEEEEEEEEEEEEEEEEEEEEEEEEEEEEEEEEEEEEEEEEEEEEEEEEEEEE                                                                ",
"EEEEEEEEEEEEEEEEEEEEEEEEEEEEEEEEEEEEEEEEEEEEEEEEEEEEEEEEEEEEEEEE                                                                ",
"EEEEEEEEEEEEEEEEEEEEEEEEEEEEEEEEEEEEEEEEEEEEEEEEEEEEEEEEEEEEEEEE                                                                ",
"EEEEEEEEEEEEEEEEEEEEEEEEEEEEEEEEEEEEEEEEEEEEEEEEEEEEEEEEEEEEEEEE                                                                ",
"EEEEEEEEEEEEEEEEEEEEEEEEEEEEEEEEEEEEEEEEEEEEEEEEEEEEEEEEEEEEEEEE                                                                ",
"EEEEEEEEEEEEEEEEEEEEEEEEEEEEEEEEEEEEEEEEEEEEEEEEEEEEEEEEEEEEEEEE                                                                "
};
