/* XPM */
static char *_99fd8107b7e47f184b0f7a9b5874a2eU85RdbwQtksBXOIw[] = {
/* columns rows colors chars-per-pixel */
"24 24 47 1 ",
"  c black",
". c gray2",
"X c gray3",
"o c gray5",
"O c #101010",
"+ c gray12",
"@ c #1A2600",
"# c #1C2900",
"$ c #1E2C00",
"% c #202F00",
"& c #232323",
"* c gray14",
"= c #282828",
"- c #2D2D2D",
"; c #3A3A3A",
": c #3E3E3E",
"> c #4F7300",
", c #515151",
"< c #555555",
"1 c #5D5D5D",
"2 c #646464",
"3 c #6A6A6A",
"4 c gray46",
"5 c gray48",
"6 c #689700",
"7 c #78AF00",
"8 c #86C300",
"9 c #A2EC00",
"0 c #808080",
"q c gray53",
"w c gray54",
"e c gray56",
"r c gray60",
"t c #A9A9A9",
"y c #B7B7B7",
"u c #B9B9B9",
"i c gray74",
"p c #C6C6C6",
"a c gray80",
"s c #D2D2D2",
"d c #E2E2E2",
"f c #E4E4E4",
"g c #EAEAEA",
"h c #F3F3F3",
"j c #F8F8F8",
"k c #FBFBFB",
"l c white",
/* pixels */
"llllllllllll            ",
"llllllllllll            ",
"llllllllllll            ",
"llllllllllll            ",
"llllllllllll            ",
"llllllllllll            ",
"llq0llllt3hl #66666666@ ",
"lly yllfO4ll %77799777$ ",
"lll,&kl2+hll     88     ",
"llld.wp ulll     88     ",
"lllleo-1llll     88     ",
"llllk+.gllll     88     ",
"lllli Xrllll     88     ",
"lllk=<qOglll     88     ",
"lll5ofk*2lll     88     ",
"lls ellt pll     88     ",
"ll;-klll:-kl     88     ",
"ls2alllls2sl     >>     ",
"llllllllllll            ",
"llllllllllll            ",
"llllllllllll            ",
"llllllllllll            ",
"llllllllllll            ",
"llllllllllll            "
};
