/* XPM */
static char *_e25e4336e9241d0d6025011b0672d7534VbC8J6vHSrkxKT[] = {
/* columns rows colors chars-per-pixel */
"48 48 62 1 ",
"  c black",
". c #040404",
"X c gray4",
"o c gray6",
"O c #101700",
"+ c #101800",
"@ c #131313",
"# c #191919",
"$ c #1E1E1E",
"% c #202E00",
"& c #223200",
"* c #232323",
"= c #282828",
"- c #2F2F2F",
"; c #313131",
": c #343434",
"> c #415E00",
", c #444444",
"< c gray27",
"1 c #484848",
"2 c #535353",
"3 c gray34",
"4 c #5B5B5B",
"5 c #5F5F5F",
"6 c #686868",
"7 c DimGray",
"8 c #6D6D6D",
"9 c #747474",
"0 c #7B7B7B",
"q c #5B8400",
"w c #5C8600",
"e c #5F8A00",
"r c #7AB200",
"t c #AFFF00",
"y c #808080",
"u c gray53",
"i c gray54",
"p c gray56",
"a c #979797",
"s c #9D9D9D",
"d c gray64",
"f c #AAAAAA",
"g c #AEAEAE",
"h c #B1B1B1",
"j c #B4B4B4",
"k c gray72",
"l c #C3C3C3",
"z c #C6C6C6",
"x c gray79",
"c c gray80",
"v c #D2D2D2",
"b c #D5D5D5",
"n c #DADADA",
"m c #DDDDDD",
"M c gray89",
"N c gray90",
"B c #E9E9E9",
"V c #ECECEC",
"C c #F3F3F3",
"Z c #F6F6F6",
"A c #F8F8F8",
"S c white",
/* pixels */
"SSSSSSSSSSSSSSSSSSSSSSSS                        ",
"SSSSSSSSSSSSSSSSSSSSSSSS                        ",
"SSSSSSSSSSSSSSSSSSSSSSSS                        ",
"SSSSSSSSSSSSSSSSSSSSSSSS                        ",
"SSSSSSSSSSSSSSSSSSSSSSSS                        ",
"SSSSSSSSSSSSSSSSSSSSSSSS                        ",
"SSSSSSSSSSSSSSSSSSSSSSSS                        ",
"SSSSSSSSSSSSSSSSSSSSSSSS                        ",
"SSSSSSSSSSSSSSSSSSSSSSSS                        ",
"SSSSSSSSSSSSSSSSSSSSSSSS                        ",
"SSSSSSSSSSSSSSSSSSSSSSSS                        ",
"SSSSSSSSSSSSSSSSSSSSSSSS                        ",
"SSSSvccVSSSSSSSSSbccBSSS   +%%%%%%%%%%%%%%%%O   ",
"SSSS0  <SSSSSSSSv. oMSSS   ettttttttttttttttq   ",
"SSSSZ*  jSSSSSSS<  aSSSS   ettttttttttttttttq   ",
"SSSSSk  *ASSSSSd  :SSSSS   &>>>>>>rttr>>>>>>&   ",
"SSSSSS2  iSSSSC# .bSSSSS          qttw          ",
"SSSSSSNo oNSSS9  ySSSSSS          qttw          ",
"SSSSSSSp  5SSnX =ZSSSSSS          qttw          ",
"SSSSSSSS;  xS1  lSSSSSSS          qttw          ",
"SSSSSSSSx  :f  7SSSSSSSS          qttw          ",
"SSSSSSSSS7  X $VSSSSSSSS          qttw          ",
"SSSSSSSSSV#   gSSSSSSSSS          qttw          ",
"SSSSSSSSSS5  @ZSSSSSSSSS          qttw          ",
"SSSSSSSSSx.   ySSSSSSSSS          qttw          ",
"SSSSSSSSA-  $ XmSSSSSSSS          qttw          ",
"SSSSSSSSu  4z  1SSSSSSSS          qttw          ",
"SSSSSSSmX oNS3  hSSSSSSS          qttw          ",
"SSSSSSS<  aSSMX $ZSSSSSS          qttw          ",
"SSSSSSd  :ASSS0  0SSSSSS          qttw          ",
"SSSSSB@  xSSSSC# .bSSSSS          qttw          ",
"SSSSS7  8SSSSSSs  <SSSSS          qttw          ",
"SSSSz  @CSSSSSSS:  fSSSS          qttw          ",
"SSSZ=  fSSSSSSSSz  #CSSS          qttw          ",
"SSS0  ,SSSSSSSSSS2  9SSS          qttw          ",
"SSSvcxBSSSSSSSSSSVccvSSS          O%%+          ",
"SSSSSSSSSSSSSSSSSSSSSSSS                        ",
"SSSSSSSSSSSSSSSSSSSSSSSS                        ",
"SSSSSSSSSSSSSSSSSSSSSSSS                        ",
"SSSSSSSSSSSSSSSSSSSSSSSS                        ",
"SSSSSSSSSSSSSSSSSSSSSSSS                        ",
"SSSSSSSSSSSSSSSSSSSSSSSS                        ",
"SSSSSSSSSSSSSSSSSSSSSSSS                        ",
"SSSSSSSSSSSSSSSSSSSSSSSS                        ",
"SSSSSSSSSSSSSSSSSSSSSSSS                        ",
"SSSSSSSSSSSSSSSSSSSSSSSS                        ",
"SSSSSSSSSSSSSSSSSSSSSSSS                        ",
"SSSSSSSSSSSSSSSSSSSSSSSS                        "
};
