/* XPM */
static char *_c8a44eacef54acbbe8eadb00ac97ecbSCDP0D05cSbSMPss[] = {
/* columns rows colors chars-per-pixel */
"16 16 37 1 ",
"  c black",
". c #121A00",
"X c #151F00",
"o c #232323",
"O c gray17",
"+ c #353535",
"@ c #405D00",
"# c #434343",
"$ c gray31",
"% c #5D5D5D",
"& c gray42",
"* c #6C6C6C",
"= c gray44",
"- c #598200",
"; c #639000",
": c #649100",
"> c #6B9C00",
", c #6C9D00",
"< c #80BA00",
"1 c #868686",
"2 c #909090",
"3 c #989898",
"4 c #A2A2A2",
"5 c #A7A7A7",
"6 c gray69",
"7 c gray73",
"8 c gray",
"9 c gray76",
"0 c #C6C6C6",
"q c gray79",
"w c #D2D2D2",
"e c #E4E4E4",
"r c gray91",
"t c #EEEEEE",
"y c #F1F1F1",
"u c #F8F8F8",
"i c white",
/* pixels */
"iiiiiiii        ",
"iiiiiiii        ",
"iiiiiiii        ",
"iiiiiiii        ",
"i61ii52i ,<<<<> ",
"iuOwtoei .X;:X. ",
"ii7#&3ii   --   ",
"iii$+iii   --   ",
"iiyoOrii   --   ",
"ii*14%ii   --   ",
"iqOui+8i   --   ",
"i=9ii0=i   @@   ",
"iiiiiiii        ",
"iiiiiiii        ",
"iiiiiiii        ",
"iiiiiiii        "
};
