/* XPM */
static char *_01697f1a8f740e9ac0957f20d455725gdBCtbColr19pDyc[] = {
/* columns rows colors chars-per-pixel */
"32 32 60 1 ",
"  c black",
". c #010100",
"X c #040600",
"o c #060606",
"O c #090D00",
"+ c #0A0E00",
"@ c gray4",
"# c gray6",
"$ c #0E1400",
"% c #111900",
"& c gray10",
"* c #1E1E1E",
"= c #232323",
"- c gray16",
"; c #313131",
": c #3C3C3C",
"> c #3E3E3E",
", c #334A00",
"< c #496A00",
"1 c #4D7000",
"2 c gray26",
"3 c #4E4E4E",
"4 c gray32",
"5 c #555555",
"6 c gray36",
"7 c gray40",
"8 c #686868",
"9 c gray43",
"0 c #777777",
"q c gray47",
"w c #6D9F00",
"e c #75AB00",
"r c #7CB500",
"t c #AFFF00",
"y c #818181",
"u c #868686",
"i c #888888",
"p c gray58",
"a c #9A9A9A",
"s c #A2A2A2",
"d c #A5A5A5",
"f c gray69",
"g c #B4B4B4",
"h c #B7B7B7",
"j c gray73",
"k c #C3C3C3",
"l c gray77",
"z c #CACACA",
"x c gray80",
"c c gray82",
"v c gray84",
"b c gray86",
"n c #DFDFDF",
"m c #E4E4E4",
"M c #EAEAEA",
"N c #EFEFEF",
"B c gray95",
"V c #F3F3F3",
"C c #F9F9F9",
"Z c white",
/* pixels */
"ZZZZZZZZZZZZZZZZ                ",
"ZZZZZZZZZZZZZZZZ                ",
"ZZZZZZZZZZZZZZZZ                ",
"ZZZZZZZZZZZZZZZZ                ",
"ZZZZZZZZZZZZZZZZ                ",
"ZZZZZZZZZZZZZZZZ                ",
"ZZZZZZZZZZZZZZZZ                ",
"ZZZZZZZZZZZZZZZZ                ",
"ZZN88VZZZZZp7jZZ  1wwwwwwwwww<  ",
"ZZZ7 qZZZZco&NZZ  rtttttttttte  ",
"ZZZN&obZZZ> fZZZ  O$$$%tt$$$$O  ",
"ZZZZa 3ZZs 5ZZZZ      Xtt       ",
"ZZZZZ2 hV&#mZZZZ      Xtt       ",
"ZZZZZvo-9 aZZZZZ      Xtt       ",
"ZZZZZZq  >ZZZZZZ      Xtt       ",
"ZZZZZZb  dZZZZZZ      Xtt       ",
"ZZZZZZ4  -CZZZZZ      Xtt       ",
"ZZZZZh :y uZZZZZ      Xtt       ",
"ZZZZV&ocV=@nZZZZ      Xtt.      ",
"ZZZZ9 0ZZd 4ZZZZ      Xtt       ",
"ZZZz *VZZZ> hZZZ      Xtt.      ",
"ZZC; hZZZZx =CZZ      Xtt.      ",
"ZZu 3ZZZZZZ6 yZZ      Xtt.      ",
"ZZljMZZZZZZNjkZZ       ,,       ",
"ZZZZZZZZZZZZZZZZ                ",
"ZZZZZZZZZZZZZZZZ                ",
"ZZZZZZZZZZZZZZZZ                ",
"ZZZZZZZZZZZZZZZZ                ",
"ZZZZZZZZZZZZZZZZ                ",
"ZZZZZZZZZZZZZZZZ                ",
"ZZZZZZZZZZZZZZZZ                ",
"ZZZZZZZZZZZZZZZZ                "
};
